
<svg width="100%" height="100%" viewBox="0 0 1696 636" version="1.1" xmlns="http://www.w3.org/2000/svg" xmlns:xlink="http://www.w3.org/1999/xlink" xml:space="preserve" xmlns:serif="http://www.serif.com/" style="fill-rule:evenodd;clip-rule:evenodd;stroke-linejoin:round;stroke-miterlimit:2;">
    <g id="Greeting" transform="matrix(1.00952,0,0,0.605714,0,0)">
        <rect x="0" y="0" width="1680" height="1050" style="fill:none;"/>
        <g transform="matrix(0.990566,0,0,1.65094,-256.557,62.0497)">
            <g transform="matrix(320,0,0,320,276.73,372.001)">
                <path d="M0.736,-0.561C0.736,-0.564 0.735,-0.568 0.735,-0.571C0.733,-0.602 0.731,-0.633 0.711,-0.659C0.694,-0.68 0.668,-0.693 0.641,-0.692C0.614,-0.692 0.588,-0.678 0.573,-0.655C0.554,-0.629 0.554,-0.597 0.555,-0.566C0.555,-0.544 0.555,-0.518 0.555,-0.494C0.555,-0.489 0.555,-0.485 0.555,-0.481C0.469,-0.532 0.351,-0.533 0.25,-0.482L0.247,-0.528C0.247,-0.547 0.246,-0.568 0.243,-0.589C0.235,-0.641 0.213,-0.674 0.177,-0.685C0.143,-0.697 0.103,-0.684 0.082,-0.655C0.069,-0.638 0.062,-0.614 0.062,-0.583C0.061,-0.539 0.058,-0.494 0.056,-0.45C0.052,-0.355 0.047,-0.258 0.053,-0.161C0.056,-0.11 0.061,-0.04 0.131,-0.024C0.138,-0.023 0.145,-0.022 0.152,-0.022C0.183,-0.022 0.214,-0.038 0.232,-0.064C0.25,-0.09 0.251,-0.119 0.252,-0.147C0.252,-0.16 0.253,-0.175 0.255,-0.188C0.269,-0.264 0.325,-0.316 0.397,-0.319C0.427,-0.32 0.455,-0.314 0.478,-0.301C0.538,-0.267 0.547,-0.186 0.547,-0.14C0.547,-0.086 0.586,-0.045 0.639,-0.042C0.694,-0.04 0.736,-0.076 0.741,-0.13C0.753,-0.268 0.747,-0.402 0.736,-0.561L0.736,-0.561ZM0.727,-0.132C0.723,-0.085 0.688,-0.055 0.64,-0.057C0.593,-0.059 0.561,-0.093 0.561,-0.14C0.561,-0.189 0.552,-0.276 0.484,-0.314C0.46,-0.327 0.429,-0.334 0.397,-0.333C0.319,-0.329 0.257,-0.272 0.241,-0.191C0.239,-0.176 0.238,-0.161 0.238,-0.147C0.237,-0.12 0.236,-0.095 0.221,-0.072C0.202,-0.045 0.166,-0.031 0.134,-0.038C0.079,-0.051 0.071,-0.1 0.067,-0.162C0.061,-0.258 0.066,-0.355 0.07,-0.449C0.072,-0.493 0.075,-0.538 0.076,-0.583C0.076,-0.611 0.082,-0.632 0.093,-0.647C0.106,-0.665 0.129,-0.675 0.152,-0.675C0.159,-0.675 0.166,-0.674 0.173,-0.672C0.203,-0.662 0.222,-0.634 0.229,-0.587C0.232,-0.567 0.232,-0.547 0.233,-0.527C0.233,-0.526 0.233,-0.521 0.234,-0.514C0.234,-0.503 0.236,-0.476 0.236,-0.472C0.236,-0.473 0.237,-0.475 0.239,-0.476L0.246,-0.464C0.246,-0.464 0.246,-0.464 0.246,-0.464C0.35,-0.52 0.472,-0.519 0.558,-0.462L0.569,-0.455L0.569,-0.468C0.569,-0.476 0.569,-0.485 0.569,-0.494C0.569,-0.518 0.57,-0.544 0.569,-0.567C0.568,-0.595 0.568,-0.624 0.584,-0.647C0.597,-0.666 0.619,-0.678 0.641,-0.678C0.663,-0.679 0.686,-0.668 0.7,-0.65C0.717,-0.628 0.719,-0.599 0.721,-0.571C0.721,-0.567 0.721,-0.563 0.722,-0.56C0.733,-0.401 0.739,-0.268 0.727,-0.132L0.727,-0.132Z" style="fill:rgb(215,119,153);fill-rule:nonzero;"/>
            </g>
            <g transform="matrix(320,0,0,320,532.09,372.001)">
                <path d="M0.487,-0.189C0.467,-0.194 0.433,-0.196 0.385,-0.194C0.371,-0.193 0.357,-0.191 0.343,-0.189C0.331,-0.187 0.32,-0.185 0.308,-0.184C0.281,-0.182 0.268,-0.187 0.262,-0.191C0.258,-0.195 0.256,-0.202 0.255,-0.212C0.254,-0.23 0.26,-0.251 0.266,-0.257C0.284,-0.276 0.307,-0.276 0.329,-0.275C0.337,-0.275 0.344,-0.275 0.351,-0.276C0.412,-0.284 0.437,-0.335 0.434,-0.379C0.43,-0.423 0.399,-0.435 0.365,-0.443C0.357,-0.444 0.345,-0.445 0.333,-0.445C0.323,-0.446 0.313,-0.446 0.307,-0.447C0.298,-0.449 0.283,-0.453 0.276,-0.466C0.27,-0.478 0.275,-0.502 0.287,-0.512C0.298,-0.522 0.314,-0.529 0.331,-0.531C0.363,-0.535 0.386,-0.535 0.412,-0.535C0.433,-0.534 0.456,-0.534 0.484,-0.537C0.532,-0.541 0.569,-0.58 0.569,-0.626C0.568,-0.665 0.543,-0.695 0.5,-0.706C0.455,-0.719 0.392,-0.726 0.332,-0.725C0.281,-0.725 0.209,-0.716 0.157,-0.673C0.112,-0.637 0.081,-0.584 0.07,-0.524C0.049,-0.418 0.045,-0.308 0.056,-0.197C0.068,-0.081 0.124,-0.016 0.228,0.002C0.262,0.008 0.3,0.011 0.339,0.011C0.388,0.011 0.438,0.006 0.481,-0.002C0.527,-0.012 0.56,-0.055 0.557,-0.103C0.554,-0.145 0.528,-0.177 0.487,-0.189L0.487,-0.189ZM0.478,-0.016C0.402,-0.001 0.305,0.001 0.23,-0.012C0.132,-0.029 0.081,-0.088 0.07,-0.198C0.059,-0.308 0.063,-0.417 0.084,-0.521C0.094,-0.578 0.124,-0.628 0.166,-0.663C0.215,-0.702 0.284,-0.711 0.332,-0.711C0.334,-0.711 0.336,-0.711 0.338,-0.711C0.395,-0.711 0.454,-0.704 0.497,-0.693C0.533,-0.683 0.554,-0.658 0.555,-0.625C0.555,-0.587 0.523,-0.555 0.482,-0.551C0.455,-0.548 0.433,-0.548 0.412,-0.549C0.387,-0.549 0.362,-0.549 0.329,-0.545C0.309,-0.543 0.291,-0.535 0.277,-0.523C0.263,-0.509 0.254,-0.479 0.264,-0.459C0.273,-0.441 0.293,-0.435 0.305,-0.433C0.312,-0.432 0.322,-0.432 0.332,-0.431C0.343,-0.431 0.355,-0.43 0.362,-0.429C0.396,-0.422 0.417,-0.411 0.42,-0.378C0.422,-0.34 0.401,-0.297 0.349,-0.29C0.343,-0.289 0.336,-0.289 0.329,-0.29C0.306,-0.29 0.279,-0.29 0.256,-0.267C0.247,-0.257 0.24,-0.232 0.241,-0.211C0.242,-0.197 0.246,-0.186 0.254,-0.18C0.265,-0.171 0.283,-0.168 0.31,-0.17C0.321,-0.171 0.333,-0.173 0.345,-0.175C0.358,-0.177 0.372,-0.179 0.386,-0.18C0.444,-0.182 0.471,-0.178 0.483,-0.175C0.518,-0.165 0.54,-0.138 0.543,-0.102C0.545,-0.061 0.517,-0.024 0.478,-0.016L0.478,-0.016Z" style="fill:rgb(212,144,23);fill-rule:nonzero;"/>
            </g>
            <g transform="matrix(320,0,0,320,730.17,372.001)">
                <path d="M0.531,-0.172C0.502,-0.196 0.464,-0.2 0.434,-0.201C0.419,-0.202 0.403,-0.2 0.388,-0.198C0.369,-0.196 0.351,-0.194 0.332,-0.197C0.289,-0.203 0.263,-0.228 0.253,-0.278C0.25,-0.291 0.248,-0.306 0.248,-0.322C0.246,-0.375 0.246,-0.428 0.246,-0.48C0.246,-0.518 0.246,-0.557 0.246,-0.595C0.245,-0.621 0.243,-0.653 0.226,-0.68C0.208,-0.71 0.173,-0.724 0.135,-0.717C0.097,-0.71 0.068,-0.683 0.062,-0.648C0.06,-0.639 0.059,-0.63 0.058,-0.621C0.056,-0.6 0.056,-0.579 0.056,-0.558C0.056,-0.546 0.056,-0.533 0.055,-0.521C0.053,-0.475 0.052,-0.427 0.051,-0.381C0.049,-0.297 0.049,-0.222 0.072,-0.148C0.091,-0.084 0.139,-0.034 0.197,-0.016C0.255,0.001 0.305,0.003 0.362,0.004L0.402,0.005C0.427,0.005 0.463,0 0.486,-0.004C0.527,-0.013 0.559,-0.047 0.563,-0.088C0.567,-0.119 0.554,-0.151 0.531,-0.172L0.531,-0.172ZM0.549,-0.09C0.545,-0.054 0.519,-0.026 0.483,-0.018C0.459,-0.013 0.42,-0.009 0.396,-0.009C0.385,-0.01 0.373,-0.01 0.362,-0.01C0.306,-0.011 0.258,-0.013 0.201,-0.03C0.148,-0.046 0.103,-0.093 0.085,-0.152C0.063,-0.224 0.063,-0.298 0.065,-0.381C0.066,-0.427 0.068,-0.474 0.069,-0.521C0.07,-0.533 0.07,-0.546 0.07,-0.558C0.07,-0.578 0.07,-0.599 0.072,-0.619C0.073,-0.629 0.074,-0.637 0.075,-0.645C0.081,-0.675 0.105,-0.697 0.137,-0.704C0.142,-0.704 0.148,-0.705 0.153,-0.705C0.175,-0.705 0.2,-0.696 0.214,-0.672C0.229,-0.648 0.231,-0.619 0.232,-0.595C0.232,-0.557 0.232,-0.518 0.232,-0.48C0.232,-0.428 0.231,-0.375 0.233,-0.322C0.234,-0.304 0.236,-0.289 0.239,-0.275C0.251,-0.22 0.281,-0.189 0.331,-0.183C0.351,-0.18 0.37,-0.182 0.39,-0.184C0.404,-0.186 0.419,-0.188 0.434,-0.187C0.461,-0.186 0.497,-0.182 0.521,-0.161C0.542,-0.144 0.553,-0.116 0.549,-0.09L0.549,-0.09Z" style="fill:rgb(66,108,101);fill-rule:nonzero;"/>
            </g>
            <g transform="matrix(320,0,0,320,926.65,372.001)">
                <path d="M0.531,-0.172C0.502,-0.196 0.464,-0.2 0.434,-0.201C0.419,-0.202 0.403,-0.2 0.388,-0.198C0.369,-0.196 0.351,-0.194 0.332,-0.197C0.289,-0.203 0.263,-0.228 0.253,-0.278C0.25,-0.291 0.248,-0.306 0.248,-0.322C0.246,-0.375 0.246,-0.428 0.246,-0.48C0.246,-0.518 0.246,-0.557 0.246,-0.595C0.245,-0.621 0.243,-0.653 0.226,-0.68C0.208,-0.71 0.173,-0.724 0.135,-0.717C0.097,-0.71 0.068,-0.683 0.062,-0.648C0.06,-0.639 0.059,-0.63 0.058,-0.621C0.056,-0.6 0.056,-0.579 0.056,-0.558C0.056,-0.546 0.056,-0.533 0.055,-0.521C0.053,-0.475 0.052,-0.427 0.051,-0.381C0.049,-0.297 0.049,-0.222 0.072,-0.148C0.091,-0.084 0.139,-0.034 0.197,-0.016C0.255,0.001 0.305,0.003 0.362,0.004L0.402,0.005C0.427,0.005 0.463,0 0.486,-0.004C0.527,-0.013 0.559,-0.047 0.563,-0.088C0.567,-0.119 0.554,-0.151 0.531,-0.172L0.531,-0.172ZM0.549,-0.09C0.545,-0.054 0.519,-0.026 0.483,-0.018C0.459,-0.013 0.42,-0.009 0.396,-0.009C0.385,-0.01 0.373,-0.01 0.362,-0.01C0.306,-0.011 0.258,-0.013 0.201,-0.03C0.148,-0.046 0.103,-0.093 0.085,-0.152C0.063,-0.224 0.063,-0.298 0.065,-0.381C0.066,-0.427 0.068,-0.474 0.069,-0.521C0.07,-0.533 0.07,-0.546 0.07,-0.558C0.07,-0.578 0.07,-0.599 0.072,-0.619C0.073,-0.629 0.074,-0.637 0.075,-0.645C0.081,-0.675 0.105,-0.697 0.137,-0.704C0.142,-0.704 0.148,-0.705 0.153,-0.705C0.175,-0.705 0.2,-0.696 0.214,-0.672C0.229,-0.648 0.231,-0.619 0.232,-0.595C0.232,-0.557 0.232,-0.518 0.232,-0.48C0.232,-0.428 0.231,-0.375 0.233,-0.322C0.234,-0.304 0.236,-0.289 0.239,-0.275C0.251,-0.22 0.281,-0.189 0.331,-0.183C0.351,-0.18 0.37,-0.182 0.39,-0.184C0.404,-0.186 0.419,-0.188 0.434,-0.187C0.461,-0.186 0.497,-0.182 0.521,-0.161C0.542,-0.144 0.553,-0.116 0.549,-0.09L0.549,-0.09Z" style="fill:rgb(52,108,89);fill-rule:nonzero;"/>
            </g>
            <g transform="matrix(320,0,0,320,1123.13,372.001)">
                <path d="M0.656,-0.527C0.599,-0.644 0.469,-0.715 0.34,-0.702C0.331,-0.701 0.322,-0.699 0.314,-0.698C0.176,-0.667 0.085,-0.518 0.059,-0.393C0.03,-0.257 0.071,-0.149 0.179,-0.072C0.234,-0.033 0.305,-0.011 0.376,-0.011C0.381,-0.011 0.386,-0.011 0.391,-0.011C0.44,-0.013 0.485,-0.026 0.523,-0.048C0.579,-0.081 0.611,-0.129 0.636,-0.177C0.668,-0.236 0.685,-0.294 0.689,-0.353C0.694,-0.414 0.682,-0.474 0.656,-0.527L0.656,-0.527ZM0.675,-0.354C0.671,-0.297 0.654,-0.241 0.624,-0.184C0.599,-0.138 0.569,-0.091 0.516,-0.06C0.48,-0.039 0.437,-0.027 0.391,-0.025C0.318,-0.022 0.244,-0.043 0.188,-0.083C0.084,-0.157 0.046,-0.26 0.072,-0.39C0.098,-0.511 0.185,-0.654 0.317,-0.684C0.325,-0.686 0.333,-0.687 0.342,-0.688C0.352,-0.689 0.362,-0.689 0.371,-0.689C0.484,-0.689 0.593,-0.623 0.644,-0.521C0.669,-0.47 0.68,-0.412 0.675,-0.354L0.675,-0.354ZM0.465,-0.471C0.438,-0.501 0.392,-0.523 0.348,-0.506C0.291,-0.484 0.262,-0.433 0.248,-0.394C0.23,-0.347 0.229,-0.28 0.26,-0.243C0.293,-0.203 0.348,-0.197 0.378,-0.197L0.378,-0.197C0.416,-0.197 0.448,-0.213 0.469,-0.242C0.498,-0.282 0.51,-0.333 0.503,-0.385C0.499,-0.418 0.485,-0.447 0.465,-0.471L0.465,-0.471ZM0.458,-0.25C0.439,-0.225 0.411,-0.211 0.378,-0.211L0.378,-0.211C0.331,-0.211 0.292,-0.226 0.27,-0.252C0.243,-0.284 0.245,-0.347 0.261,-0.389C0.274,-0.425 0.301,-0.472 0.353,-0.493C0.362,-0.496 0.371,-0.498 0.38,-0.498C0.409,-0.498 0.436,-0.482 0.454,-0.462C0.473,-0.44 0.485,-0.413 0.489,-0.383C0.495,-0.334 0.485,-0.288 0.458,-0.25L0.458,-0.25Z" style="fill:rgb(198,74,107);fill-rule:nonzero;"/>
            </g>
        </g>
        <g transform="matrix(0.990566,0,0,1.65094,21.7925,-466.539)">
            <g transform="matrix(268,0,0,268,1025.4,778.007)">
                <path d="M0.089,-0.011C0.088,-0.012 0.088,-0.016 0.088,-0.021C0.088,-0.027 0.088,-0.031 0.089,-0.033C0.091,-0.04 0.094,-0.053 0.1,-0.071C0.105,-0.089 0.11,-0.108 0.116,-0.127C0.122,-0.147 0.128,-0.166 0.133,-0.184C0.138,-0.201 0.142,-0.214 0.144,-0.221C0.146,-0.23 0.149,-0.24 0.152,-0.252C0.156,-0.264 0.156,-0.276 0.154,-0.287C0.145,-0.288 0.132,-0.287 0.118,-0.284C0.104,-0.28 0.09,-0.277 0.076,-0.275C0.062,-0.273 0.049,-0.273 0.037,-0.275C0.025,-0.277 0.016,-0.285 0.011,-0.298C0.019,-0.314 0.03,-0.325 0.046,-0.33C0.062,-0.334 0.078,-0.338 0.097,-0.34C0.115,-0.342 0.132,-0.345 0.149,-0.349C0.166,-0.353 0.179,-0.361 0.188,-0.375C0.194,-0.392 0.201,-0.413 0.209,-0.437C0.218,-0.461 0.226,-0.487 0.235,-0.514C0.244,-0.54 0.254,-0.567 0.265,-0.593C0.276,-0.619 0.287,-0.642 0.299,-0.662C0.306,-0.667 0.312,-0.667 0.316,-0.663C0.321,-0.659 0.324,-0.653 0.327,-0.646C0.329,-0.639 0.33,-0.631 0.331,-0.623C0.332,-0.615 0.332,-0.61 0.331,-0.607C0.327,-0.59 0.32,-0.572 0.311,-0.553C0.302,-0.534 0.293,-0.515 0.285,-0.495C0.277,-0.476 0.27,-0.456 0.265,-0.437C0.26,-0.417 0.26,-0.398 0.265,-0.381L0.475,-0.381C0.475,-0.381 0.477,-0.379 0.479,-0.375C0.482,-0.37 0.484,-0.367 0.486,-0.364C0.49,-0.355 0.486,-0.349 0.476,-0.346C0.465,-0.342 0.451,-0.34 0.434,-0.339C0.416,-0.338 0.396,-0.338 0.374,-0.337C0.351,-0.337 0.33,-0.335 0.309,-0.333C0.289,-0.33 0.27,-0.325 0.254,-0.318C0.238,-0.311 0.227,-0.301 0.221,-0.287C0.204,-0.243 0.188,-0.2 0.174,-0.156C0.16,-0.112 0.146,-0.067 0.133,-0.022C0.132,-0.021 0.129,-0.017 0.125,-0.013C0.121,-0.009 0.117,-0.005 0.112,-0.002C0.108,0 0.103,0.002 0.099,0.001C0.095,0 0.091,-0.004 0.089,-0.011Z" style="fill:rgb(54,33,0);fill-rule:nonzero;"/>
            </g>
            <g transform="matrix(268,0,0,268,1137.94,778.007)">
                <path d="M0.011,-0.022C0.01,-0.024 0.01,-0.026 0.01,-0.028C0.01,-0.03 0.01,-0.032 0.011,-0.033C0.013,-0.038 0.018,-0.047 0.024,-0.06C0.03,-0.073 0.037,-0.086 0.043,-0.1C0.05,-0.114 0.057,-0.127 0.063,-0.14C0.07,-0.152 0.075,-0.161 0.077,-0.166C0.078,-0.168 0.082,-0.174 0.087,-0.183C0.093,-0.192 0.1,-0.203 0.108,-0.216C0.116,-0.23 0.125,-0.244 0.134,-0.261C0.144,-0.277 0.153,-0.293 0.163,-0.309C0.172,-0.324 0.181,-0.339 0.189,-0.353C0.197,-0.366 0.204,-0.378 0.209,-0.387C0.222,-0.408 0.237,-0.434 0.254,-0.463C0.272,-0.492 0.289,-0.522 0.308,-0.552C0.326,-0.582 0.344,-0.611 0.362,-0.639C0.38,-0.667 0.396,-0.69 0.411,-0.708C0.426,-0.726 0.439,-0.738 0.449,-0.744C0.46,-0.75 0.467,-0.746 0.471,-0.732L0.471,-0.701C0.466,-0.694 0.46,-0.685 0.452,-0.673C0.444,-0.662 0.436,-0.65 0.428,-0.637C0.42,-0.625 0.412,-0.612 0.404,-0.601C0.396,-0.589 0.391,-0.58 0.387,-0.573C0.381,-0.564 0.371,-0.549 0.358,-0.529C0.345,-0.509 0.331,-0.486 0.314,-0.461C0.298,-0.436 0.282,-0.409 0.265,-0.381C0.248,-0.354 0.232,-0.328 0.219,-0.304C0.205,-0.28 0.194,-0.259 0.186,-0.242C0.178,-0.224 0.175,-0.214 0.177,-0.209C0.192,-0.214 0.209,-0.222 0.227,-0.234C0.245,-0.246 0.263,-0.259 0.281,-0.272C0.299,-0.286 0.318,-0.299 0.336,-0.312C0.354,-0.325 0.371,-0.335 0.387,-0.342C0.402,-0.34 0.416,-0.334 0.428,-0.324C0.439,-0.314 0.448,-0.302 0.453,-0.287C0.452,-0.281 0.452,-0.27 0.452,-0.254C0.451,-0.238 0.451,-0.222 0.451,-0.204C0.451,-0.187 0.451,-0.17 0.452,-0.154C0.452,-0.139 0.452,-0.128 0.453,-0.122C0.454,-0.115 0.457,-0.106 0.463,-0.095C0.469,-0.084 0.475,-0.074 0.482,-0.063C0.489,-0.052 0.495,-0.043 0.5,-0.035C0.506,-0.027 0.508,-0.023 0.508,-0.022C0.495,-0.018 0.482,-0.018 0.471,-0.022C0.459,-0.026 0.449,-0.033 0.44,-0.042C0.431,-0.052 0.424,-0.063 0.418,-0.075C0.413,-0.087 0.41,-0.099 0.408,-0.11C0.408,-0.116 0.407,-0.127 0.405,-0.143C0.404,-0.159 0.403,-0.176 0.402,-0.193C0.401,-0.211 0.4,-0.228 0.399,-0.243C0.398,-0.259 0.397,-0.27 0.397,-0.275L0.375,-0.287C0.371,-0.289 0.364,-0.287 0.355,-0.282C0.346,-0.277 0.335,-0.27 0.322,-0.261C0.31,-0.252 0.297,-0.241 0.283,-0.229C0.27,-0.218 0.257,-0.207 0.245,-0.196C0.233,-0.186 0.222,-0.177 0.214,-0.169C0.205,-0.161 0.2,-0.156 0.198,-0.154C0.193,-0.149 0.184,-0.14 0.17,-0.126C0.156,-0.113 0.142,-0.099 0.126,-0.083C0.111,-0.068 0.097,-0.054 0.083,-0.04C0.07,-0.026 0.061,-0.017 0.056,-0.011C0.047,-0.009 0.038,-0.008 0.03,-0.008C0.022,-0.009 0.015,-0.013 0.011,-0.022Z" style="fill:rgb(54,33,0);fill-rule:nonzero;"/>
            </g>
            <g transform="matrix(268,0,0,268,1282.93,778.007)">
                <path d="M0.083,-0.011C0.063,-0.017 0.049,-0.027 0.039,-0.041C0.028,-0.054 0.022,-0.069 0.019,-0.085C0.015,-0.101 0.015,-0.118 0.017,-0.136C0.019,-0.154 0.023,-0.171 0.028,-0.188C0.048,-0.208 0.07,-0.232 0.094,-0.259C0.119,-0.286 0.145,-0.313 0.172,-0.339C0.199,-0.365 0.228,-0.389 0.257,-0.412C0.287,-0.434 0.317,-0.451 0.348,-0.463C0.358,-0.467 0.366,-0.467 0.373,-0.462C0.379,-0.458 0.383,-0.45 0.386,-0.439C0.388,-0.429 0.389,-0.417 0.389,-0.403C0.389,-0.39 0.388,-0.376 0.386,-0.363C0.384,-0.35 0.381,-0.339 0.378,-0.328C0.375,-0.318 0.371,-0.311 0.368,-0.307C0.36,-0.298 0.345,-0.287 0.323,-0.274C0.3,-0.262 0.275,-0.249 0.248,-0.234C0.221,-0.219 0.193,-0.204 0.166,-0.188C0.139,-0.173 0.116,-0.157 0.099,-0.142C0.081,-0.127 0.071,-0.112 0.067,-0.097C0.064,-0.082 0.073,-0.068 0.095,-0.056C0.117,-0.053 0.144,-0.054 0.175,-0.059C0.207,-0.064 0.239,-0.07 0.272,-0.079C0.305,-0.087 0.337,-0.095 0.367,-0.104C0.398,-0.113 0.423,-0.12 0.442,-0.125L0.454,-0.114C0.44,-0.095 0.416,-0.078 0.384,-0.063C0.351,-0.047 0.316,-0.034 0.278,-0.024C0.241,-0.014 0.204,-0.007 0.168,-0.004C0.132,-0.001 0.104,-0.004 0.083,-0.011ZM0.316,-0.384C0.316,-0.384 0.311,-0.382 0.302,-0.375C0.293,-0.369 0.281,-0.361 0.268,-0.351C0.255,-0.341 0.24,-0.33 0.225,-0.318C0.21,-0.306 0.196,-0.295 0.183,-0.284C0.17,-0.274 0.16,-0.265 0.151,-0.257C0.143,-0.25 0.139,-0.246 0.141,-0.246C0.151,-0.244 0.165,-0.246 0.181,-0.25C0.198,-0.255 0.215,-0.262 0.233,-0.271C0.251,-0.281 0.268,-0.291 0.284,-0.302C0.3,-0.314 0.313,-0.325 0.323,-0.336C0.332,-0.347 0.337,-0.357 0.337,-0.365C0.338,-0.374 0.331,-0.38 0.316,-0.384Z" style="fill:rgb(54,33,0);fill-rule:nonzero;"/>
            </g>
            <g transform="matrix(268,0,0,268,1396.78,778.007)">
                <path d="M0.028,-0.011C0.027,-0.011 0.027,-0.019 0.029,-0.034C0.03,-0.048 0.033,-0.067 0.036,-0.089C0.039,-0.111 0.044,-0.135 0.049,-0.162C0.054,-0.189 0.06,-0.214 0.065,-0.239C0.071,-0.263 0.078,-0.285 0.084,-0.303C0.091,-0.322 0.098,-0.335 0.104,-0.342C0.109,-0.346 0.114,-0.347 0.118,-0.342C0.123,-0.338 0.127,-0.333 0.132,-0.327C0.136,-0.32 0.141,-0.315 0.146,-0.31C0.15,-0.305 0.155,-0.305 0.16,-0.309C0.178,-0.334 0.198,-0.358 0.22,-0.381C0.242,-0.404 0.266,-0.424 0.293,-0.441C0.296,-0.443 0.303,-0.446 0.314,-0.451C0.326,-0.455 0.34,-0.459 0.354,-0.463C0.369,-0.468 0.385,-0.471 0.401,-0.474C0.417,-0.477 0.431,-0.478 0.442,-0.478C0.453,-0.478 0.461,-0.475 0.465,-0.469C0.47,-0.464 0.467,-0.454 0.459,-0.441C0.42,-0.441 0.383,-0.429 0.35,-0.407C0.316,-0.385 0.285,-0.358 0.256,-0.325C0.227,-0.293 0.201,-0.257 0.178,-0.219C0.154,-0.181 0.134,-0.146 0.117,-0.113C0.099,-0.081 0.085,-0.054 0.074,-0.032C0.062,-0.011 0.054,0 0.049,0C0.048,0 0.045,-0.001 0.04,-0.004C0.035,-0.007 0.031,-0.009 0.028,-0.011Z" style="fill:rgb(54,33,0);fill-rule:nonzero;"/>
            </g>
            <g transform="matrix(268,0,0,268,1523.97,778.007)">
                <path d="M0.083,-0.011C0.063,-0.017 0.049,-0.027 0.039,-0.041C0.028,-0.054 0.022,-0.069 0.019,-0.085C0.015,-0.101 0.015,-0.118 0.017,-0.136C0.019,-0.154 0.023,-0.171 0.028,-0.188C0.048,-0.208 0.07,-0.232 0.094,-0.259C0.119,-0.286 0.145,-0.313 0.172,-0.339C0.199,-0.365 0.228,-0.389 0.257,-0.412C0.287,-0.434 0.317,-0.451 0.348,-0.463C0.358,-0.467 0.366,-0.467 0.373,-0.462C0.379,-0.458 0.383,-0.45 0.386,-0.439C0.388,-0.429 0.389,-0.417 0.389,-0.403C0.389,-0.39 0.388,-0.376 0.386,-0.363C0.384,-0.35 0.381,-0.339 0.378,-0.328C0.375,-0.318 0.371,-0.311 0.368,-0.307C0.36,-0.298 0.345,-0.287 0.323,-0.274C0.3,-0.262 0.275,-0.249 0.248,-0.234C0.221,-0.219 0.193,-0.204 0.166,-0.188C0.139,-0.173 0.116,-0.157 0.099,-0.142C0.081,-0.127 0.071,-0.112 0.067,-0.097C0.064,-0.082 0.073,-0.068 0.095,-0.056C0.117,-0.053 0.144,-0.054 0.175,-0.059C0.207,-0.064 0.239,-0.07 0.272,-0.079C0.305,-0.087 0.337,-0.095 0.367,-0.104C0.398,-0.113 0.423,-0.12 0.442,-0.125L0.454,-0.114C0.44,-0.095 0.416,-0.078 0.384,-0.063C0.351,-0.047 0.316,-0.034 0.278,-0.024C0.241,-0.014 0.204,-0.007 0.168,-0.004C0.132,-0.001 0.104,-0.004 0.083,-0.011ZM0.316,-0.384C0.316,-0.384 0.311,-0.382 0.302,-0.375C0.293,-0.369 0.281,-0.361 0.268,-0.351C0.255,-0.341 0.24,-0.33 0.225,-0.318C0.21,-0.306 0.196,-0.295 0.183,-0.284C0.17,-0.274 0.16,-0.265 0.151,-0.257C0.143,-0.25 0.139,-0.246 0.141,-0.246C0.151,-0.244 0.165,-0.246 0.181,-0.25C0.198,-0.255 0.215,-0.262 0.233,-0.271C0.251,-0.281 0.268,-0.291 0.284,-0.302C0.3,-0.314 0.313,-0.325 0.323,-0.336C0.332,-0.347 0.337,-0.357 0.337,-0.365C0.338,-0.374 0.331,-0.38 0.316,-0.384Z" style="fill:rgb(54,33,0);fill-rule:nonzero;"/>
            </g>
        </g>
    </g>
</svg>
