<?xml version="1.0" encoding="UTF-8" standalone="no"?>
<!DOCTYPE svg PUBLIC "-//W3C//DTD SVG 1.1//EN" "http://www.w3.org/Graphics/SVG/1.1/DTD/svg11.dtd">
<svg width="100%" height="100%" viewBox="0 0 1000 689" version="1.1" xmlns="http://www.w3.org/2000/svg" xmlns:xlink="http://www.w3.org/1999/xlink" xml:space="preserve" xmlns:serif="http://www.serif.com/" style="fill-rule:evenodd;clip-rule:evenodd;stroke-linejoin:round;stroke-miterlimit:2;">
    <g id="アートボード1" transform="matrix(0.595238,0,0,0.65619,0,0)">
        <rect x="0" y="0" width="1680" height="1050" style="fill:none;"/>
        <g transform="matrix(1.78733,0,0,1.64985,-520.456,-49.5072)">
            <g transform="matrix(260,0,0,260,889.25,395.575)">
                <path d="M0.526,-0.139C0.439,-0.08 0.343,-0.018 0.262,-0.018L0.218,-0.018L0.218,-0.356L0.243,-0.356C0.346,-0.356 0.416,-0.338 0.439,-0.315L0.441,-0.315L0.441,-0.407L0.439,-0.407C0.416,-0.385 0.346,-0.373 0.243,-0.373L0.218,-0.373L0.218,-0.682L0.257,-0.682C0.339,-0.682 0.43,-0.618 0.51,-0.569L0.512,-0.569L0.496,-0.699L0.065,-0.699L0.065,0L0.506,0L0.528,-0.139L0.526,-0.139Z" style="fill:rgb(224,169,142);fill-rule:nonzero;"/>
            </g>
            <g transform="matrix(260,0,0,260,1034.07,395.575)">
                <path d="M0.391,-0.517C0.383,-0.516 0.366,-0.517 0.348,-0.517C0.275,-0.512 0.221,-0.457 0.196,-0.363C0.196,-0.362 0.196,-0.362 0.196,-0.361L0.196,-0.384C0.194,-0.42 0.179,-0.452 0.156,-0.476C0.134,-0.499 0.104,-0.514 0.07,-0.517L0.059,-0.517L0.059,-0.001L0.2,-0.001L0.2,-0.332C0.201,-0.334 0.202,-0.337 0.202,-0.34C0.205,-0.356 0.211,-0.37 0.219,-0.382C0.219,-0.383 0.219,-0.383 0.219,-0.383C0.229,-0.398 0.242,-0.41 0.258,-0.419C0.273,-0.428 0.291,-0.433 0.309,-0.433C0.342,-0.433 0.371,-0.418 0.391,-0.395L0.395,-0.394L0.395,-0.517L0.391,-0.517Z" style="fill:rgb(224,169,142);fill-rule:nonzero;"/>
            </g>
            <g transform="matrix(260,0,0,260,1139.11,395.575)">
                <path d="M0.116,-0.597C0.166,-0.588 0.209,-0.631 0.199,-0.681C0.194,-0.708 0.172,-0.731 0.144,-0.736C0.094,-0.746 0.051,-0.703 0.06,-0.653C0.066,-0.625 0.088,-0.603 0.116,-0.597ZM0.059,-0.517L0.059,-0.001L0.2,-0.001L0.2,-0.376C0.2,-0.454 0.137,-0.517 0.059,-0.517L0.059,-0.517Z" style="fill:rgb(224,169,142);fill-rule:nonzero;"/>
            </g>
        </g>
        <g transform="matrix(1.78733,0,0,1.64985,-1584.9,80.1682)">
            <g transform="matrix(260,0,0,260,902.307,554.91)">
                <path d="M0.731,-0.533C0.624,-0.731 0.423,-0.769 0.241,-0.671C0.048,-0.567 -0.026,-0.366 0.082,-0.167C0.189,0.032 0.389,0.07 0.572,-0.029C0.764,-0.133 0.839,-0.333 0.731,-0.533L0.731,-0.533ZM0.574,-0.047C0.455,0.016 0.323,-0.071 0.224,-0.256C0.126,-0.437 0.118,-0.587 0.24,-0.653C0.358,-0.717 0.49,-0.629 0.59,-0.444C0.688,-0.263 0.695,-0.113 0.574,-0.047L0.574,-0.047Z" style="fill:rgb(224,169,142);fill-rule:nonzero;"/>
            </g>
            <g transform="matrix(260,0,0,260,1113.69,554.91)">
                <path d="M0.116,-0.597C0.166,-0.588 0.209,-0.631 0.199,-0.681C0.194,-0.708 0.172,-0.731 0.144,-0.736C0.094,-0.746 0.051,-0.703 0.06,-0.653C0.066,-0.625 0.088,-0.603 0.116,-0.597ZM0.059,-0.517L0.059,-0.001L0.2,-0.001L0.2,-0.376C0.2,-0.454 0.137,-0.517 0.059,-0.517L0.059,-0.517Z" style="fill:rgb(224,169,142);fill-rule:nonzero;"/>
            </g>
            <g transform="matrix(260,0,0,260,1181.29,554.91)">
                <path d="M0.304,-0.307C0.304,-0.307 0.304,-0.307 0.304,-0.307C0.303,-0.309 0.302,-0.311 0.302,-0.313C0.299,-0.332 0.315,-0.352 0.327,-0.364L0.332,-0.368C0.333,-0.369 0.335,-0.371 0.337,-0.372C0.404,-0.429 0.458,-0.47 0.53,-0.515L0.53,-0.517L0.391,-0.517C0.387,-0.468 0.381,-0.435 0.306,-0.37L0.201,-0.277L0.201,-0.597C0.201,-0.636 0.185,-0.671 0.16,-0.696C0.134,-0.722 0.099,-0.737 0.059,-0.738L0.059,-0.738L0.059,0L0.201,0L0.201,-0.253L0.27,-0.314C0.27,-0.313 0.27,-0.313 0.27,-0.312L0.27,-0.312C0.271,-0.228 0.412,-0.179 0.412,-0.057C0.412,-0.036 0.408,-0.016 0.401,0L0.559,0C0.563,-0.014 0.565,-0.028 0.565,-0.043C0.565,-0.199 0.334,-0.235 0.304,-0.307L0.304,-0.307Z" style="fill:rgb(224,169,142);fill-rule:nonzero;"/>
            </g>
            <g transform="matrix(260,0,0,260,1333.91,554.91)">
                <path d="M0.558,-0.027C0.512,-0.028 0.512,-0.055 0.513,-0.101L0.515,-0.285L0.515,-0.285C0.51,-0.421 0.426,-0.515 0.313,-0.531C0.233,-0.542 0.171,-0.512 0.129,-0.47L0.148,-0.445C0.166,-0.458 0.185,-0.463 0.201,-0.465C0.214,-0.467 0.225,-0.467 0.233,-0.465L0.246,-0.463C0.263,-0.457 0.272,-0.444 0.272,-0.428C0.272,-0.346 0.008,-0.316 0.008,-0.15C0.008,-0.053 0.087,0.011 0.209,0.011C0.283,0.011 0.339,-0.015 0.379,-0.043C0.389,-0.019 0.414,0.007 0.47,0.007C0.522,0.008 0.564,-0.015 0.577,-0.023L0.577,-0.029C0.572,-0.028 0.566,-0.027 0.558,-0.027L0.558,-0.027ZM0.286,-0.042C0.209,-0.042 0.161,-0.09 0.161,-0.163C0.161,-0.286 0.303,-0.335 0.303,-0.419C0.303,-0.455 0.275,-0.474 0.241,-0.478C0.257,-0.504 0.274,-0.521 0.3,-0.518C0.366,-0.509 0.372,-0.431 0.373,-0.306L0.381,-0.305L0.373,-0.306L0.371,-0.067L0.371,-0.066C0.371,-0.066 0.372,-0.066 0.372,-0.065C0.348,-0.052 0.32,-0.042 0.286,-0.042L0.286,-0.042Z" style="fill:rgb(224,169,142);fill-rule:nonzero;"/>
            </g>
            <g transform="matrix(260,0,0,260,1473.53,554.91)">
                <path d="M0.639,-0.517C0.636,-0.456 0.656,-0.37 0.596,-0.223L0.578,-0.182L0.445,-0.517L0.44,-0.517L0.303,-0.179L0.189,-0.455C0.173,-0.492 0.136,-0.517 0.095,-0.517L0.011,-0.517L0.235,0.019L0.24,0.019L0.377,-0.314L0.509,0.019L0.514,0.019L0.612,-0.217C0.672,-0.36 0.704,-0.436 0.746,-0.517L0.639,-0.517L0.639,-0.517Z" style="fill:rgb(224,169,142);fill-rule:nonzero;"/>
            </g>
            <g transform="matrix(260,0,0,260,1652.67,554.91)">
                <path d="M0.558,-0.027C0.512,-0.028 0.512,-0.055 0.513,-0.101L0.515,-0.285L0.515,-0.285C0.51,-0.421 0.426,-0.515 0.313,-0.531C0.233,-0.542 0.171,-0.512 0.129,-0.47L0.148,-0.445C0.166,-0.458 0.185,-0.463 0.201,-0.465C0.214,-0.467 0.225,-0.467 0.233,-0.465L0.246,-0.463C0.263,-0.457 0.272,-0.444 0.272,-0.428C0.272,-0.346 0.008,-0.316 0.008,-0.15C0.008,-0.053 0.087,0.011 0.209,0.011C0.283,0.011 0.339,-0.015 0.379,-0.043C0.389,-0.019 0.414,0.007 0.47,0.007C0.522,0.008 0.564,-0.015 0.577,-0.023L0.577,-0.029C0.572,-0.028 0.566,-0.027 0.558,-0.027L0.558,-0.027ZM0.286,-0.042C0.209,-0.042 0.161,-0.09 0.161,-0.163C0.161,-0.286 0.303,-0.335 0.303,-0.419C0.303,-0.455 0.275,-0.474 0.241,-0.478C0.257,-0.504 0.274,-0.521 0.3,-0.518C0.366,-0.509 0.372,-0.431 0.373,-0.306L0.381,-0.305L0.373,-0.306L0.371,-0.067L0.371,-0.066C0.371,-0.066 0.372,-0.066 0.372,-0.065C0.348,-0.052 0.32,-0.042 0.286,-0.042L0.286,-0.042Z" style="fill:rgb(224,169,142);fill-rule:nonzero;"/>
            </g>
        </g>
    </g>
</svg>
